<svg xmlns="http://www.w3.org/2000/svg" xmlns:xlink="http://www.w3.org/1999/xlink" version="1.1" width="940" height="788" viewBox="0 0 940 788" xml:space="preserve">
<desc>Created with Fabric.js 3.5.0</desc>
<defs>
</defs>
<rect x="0" y="0" width="100%" height="100%" fill="rgba(255,255,255,0)"/>
<g transform="matrix(1.284 0 0 1.284 295.7573 393.9969)" id="828665">
<path style="stroke: none; stroke-width: 1; stroke-dasharray: none; stroke-linecap: butt; stroke-dashoffset: 0; stroke-linejoin: miter; stroke-miterlimit: 4; is-custom-font: none; font-file-url: none; fill: rgb(72,143,66); fill-rule: nonzero; opacity: 1;" vector-effect="non-scaling-stroke" transform=" translate(-191.15, -256.47)" d="M 352 359.8 c 22.46 0 31.1 19.53 31.1 31.99 c 0 23.14 -66.96 88.23 -164.5 88.23 c -137.1 0 -219.4 -117.8 -219.4 -224 c 0 -103.8 79.87 -223.1 219.4 -223.1 c 99.47 0 164.5 66.12 164.5 88.23 c 0 12.27 -9.527 32.01 -32.01 32.01 c -31.32 0 -45.8 -56.25 -132.5 -56.25 c -97.99 0 -155.4 84.59 -155.4 159.1 c 0 74.03 56.42 160 155.4 160 C 306.5 416 320.5 359.8 352 359.8 z" stroke-linecap="round"/>
</g>
<g transform="matrix(9.1427 0 0 9.1427 315.5164 429.8439)" id="948581">
<path style="stroke: none; stroke-width: 1; stroke-dasharray: none; stroke-linecap: butt; stroke-dashoffset: 0; stroke-linejoin: miter; stroke-miterlimit: 4; is-custom-font: none; font-file-url: none; fill: rgb(143,66,75); fill-rule: nonzero; opacity: 1;" vector-effect="non-scaling-stroke" transform=" translate(-11.95, -12.05)" d="M 23 19.9 L 23 19.9 l 0 -2 c 0 -0.3 -0.2 -0.5 -0.5 -0.5 h -0.8 c -0.1 0 -0.3 -0.2 -0.3 -0.2 l 0 -10.4 c 0 -0.1 0.2 -0.3 0.3 -0.3 h 0.8 c 0.3 0 0.5 -0.2 0.5 -0.5 V 3.6 c 0 -0.3 -0.2 -0.5 -0.5 -0.5 h -7.9 c -0.2 0 -0.4 0.1 -0.5 0.4 l -2.2 8.1 L 9.8 3.5 C 9.7 3.3 9.5 3.1 9.3 3.1 H 1.3 c -0.3 0 -0.5 0.2 -0.5 0.5 v 2.5 c 0 0.3 0.2 0.5 0.5 0.5 l 0.8 0 c 0.1 0 0.3 0.2 0.3 0.3 l 0 10.4 c 0 0.1 -0.2 0.2 -0.3 0.2 H 1.3 c -0.3 0 -0.5 0.2 -0.5 0.5 v 2 c -0.2 0.1 -0.4 0.2 -0.4 0.5 c 0 0.3 0.2 0.5 0.5 0.5 h 0.4 H 4 h 3.7 c 0.3 0 0.5 -0.2 0.5 -0.5 v -2.5 c 0 -0.3 -0.2 -0.5 -0.5 -0.5 H 6.6 v -7.2 l 2.8 10.3 c 0.1 0.2 0.2 0.4 0.5 0.4 h 2.9 c 0.2 0 0.4 -0.1 0.5 -0.4 L 16 10.2 v 7.2 h -1.1 c -0.3 0 -0.5 0.2 -0.5 0.5 v 2.5 c 0 0.3 0.2 0.5 0.5 0.5 h 5 h 2.6 H 23 c 0.3 0 0.5 -0.2 0.5 -0.5 C 23.5 20.1 23.3 19.9 23 19.9 z" stroke-linecap="round"/>
</g>
<g transform="matrix(0.365 0.0576 -0.0576 0.365 448.195 405.3349)" id="527866">
<path style="stroke: none; stroke-width: 1; stroke-dasharray: none; stroke-linecap: butt; stroke-dashoffset: 0; stroke-linejoin: miter; stroke-miterlimit: 4; is-custom-font: none; font-file-url: none; fill: rgb(143,66,75); fill-rule: nonzero; opacity: 1;" vector-effect="non-scaling-stroke" transform=" translate(-192.0013, -256.0161)" d="M 381.5 435.7 l -160 -384 C 216.6 39.78 204.9 32.01 192 32.01 S 167.4 39.78 162.5 51.7 l -160 384 c -6.797 16.31 0.9062 35.05 17.22 41.84 c 16.38 6.828 35.08 -0.9219 41.84 -17.22 l 31.8 -76.31 h 197.3 l 31.8 76.31 c 5.109 12.28 17.02 19.7 29.55 19.7 c 4.094 0 8.266 -0.7969 12.3 -2.484 C 380.6 470.7 388.3 452 381.5 435.7 z M 119.1 320 L 192 147.2 l 72 172.8 H 119.1 z" stroke-linecap="round"/>
</g>
<g transform="matrix(0.2549 0.0589 -0.0589 0.2549 552.6755 443.1441)" id="394503">
<path style="stroke: none; stroke-width: 1; stroke-dasharray: none; stroke-linecap: butt; stroke-dashoffset: 0; stroke-linejoin: miter; stroke-miterlimit: 4; is-custom-font: none; font-file-url: none; fill: rgb(143,66,75); fill-rule: nonzero; opacity: 1;" vector-effect="non-scaling-stroke" transform=" translate(-192, -256)" d="M 384 64.01 v 384 c 0 13.47 -8.438 25.5 -21.09 30.09 C 359.3 479.4 355.7 480 352 480 c -9.312 0 -18.38 -4.078 -24.59 -11.52 L 64 152.4 v 295.6 c 0 17.67 -14.31 32 -32 32 s -32 -14.33 -32 -32 v -384 c 0 -13.47 8.438 -25.5 21.09 -30.09 c 12.62 -4.516 26.84 -0.75 35.5 9.609 L 320 359.6 v -295.6 c 0 -17.67 14.31 -32 32 -32 S 384 46.34 384 64.01 z" stroke-linecap="round"/>
</g>
<g transform="matrix(5.9747 0 0 10.1192 626.3748 491.0098)" id="997605">
<path style="stroke: none; stroke-width: 1; stroke-dasharray: none; stroke-linecap: butt; stroke-dashoffset: 0; stroke-linejoin: miter; stroke-miterlimit: 4; is-custom-font: none; font-file-url: none; fill: rgb(143,66,75); fill-rule: nonzero; opacity: 1;" vector-effect="non-scaling-stroke" transform=" translate(-12, -12)" d="M 16.5 23.5 H 7.5 C 7.3 23.5 7 23.3 7 23 v -2 c 0 -0.3 0.2 -0.5 0.5 -0.5 h 1.4 v -17 H 7.5 C 7.3 3.5 7 3.3 7 3 V 1 c 0 -0.3 0.2 -0.5 0.5 -0.5 h 8.9 C 16.7 0.5 17 0.7 17 1 v 2 c 0 0.3 -0.2 0.5 -0.5 0.5 h -1.4 v 17 h 1.4 c 0.3 0 0.5 0.2 0.5 0.5 v 2 C 17 23.3 16.7 23.5 16.5 23.5 z" stroke-linecap="round"/>
</g>
<g transform="matrix(13.3947 0 0 13.3947 700.0049 566.8752)" id="265047">
<path style="stroke: none; stroke-width: 1; stroke-dasharray: none; stroke-linecap: butt; stroke-dashoffset: 0; stroke-linejoin: miter; stroke-miterlimit: 4; is-custom-font: none; font-file-url: none; fill: rgb(143,66,75); fill-rule: nonzero; opacity: 1;" vector-effect="non-scaling-stroke" transform=" translate(-12, -12.0002)" d="M 18.97021 19.75732 L 15.34912 5.27246 A 2.9958 2.9958 0 0 0 12.43848 3 h -0.877 A 2.9958 2.9958 0 0 0 8.65088 5.27246 L 5.02979 19.75732 a 1.0001 1.0001 0 0 0 1.94042 0.48536 L 8.28082 15 h 7.43836 l 1.31061 5.24268 a 1.0001 1.0001 0 0 0 1.94042 -0.48536 Z M 8.78082 13 l 1.81049 -7.24219 A 0.99825 0.99825 0 0 1 11.56152 5 h 0.877 a 0.99825 0.99825 0 0 1 0.97021 0.75781 L 15.21918 13 Z" stroke-linecap="round"/>
</g>
</svg>